<svg width="46" height="45" viewBox="0 0 46 45" fill="none" xmlns="http://www.w3.org/2000/svg">
<path d="M14.1583 36C11.7246 36 9.75543 38.025 9.75543 40.5C9.75543 42.975 11.7246 45 14.1583 45C16.5921 45 18.5833 42.975 18.5833 40.5C18.5833 38.025 16.5921 36 14.1583 36ZM0.883301 2.25C0.883301 3.4875 1.87893 4.5 3.0958 4.5H5.3083L13.2733 21.5775L10.2864 27.0675C8.6713 30.0825 10.7953 33.75 14.1583 33.75H38.4958C39.7127 33.75 40.7083 32.7375 40.7083 31.5C40.7083 30.2625 39.7127 29.25 38.4958 29.25H14.1583L16.5921 24.75H33.0752C34.7346 24.75 36.1948 23.8275 36.9471 22.4325L44.8678 7.83C45.6864 6.345 44.6244 4.5 42.9429 4.5H10.1979L8.71555 1.2825C8.36155 0.495 7.56505 0 6.7243 0H3.0958C1.87893 0 0.883301 1.0125 0.883301 2.25ZM36.2833 36C33.8496 36 31.8804 38.025 31.8804 40.5C31.8804 42.975 33.8496 45 36.2833 45C38.7171 45 40.7083 42.975 40.7083 40.5C40.7083 38.025 38.7171 36 36.2833 36Z" fill="#0B83FD"/>
</svg>
