<svg width="32" height="32" viewBox="0 0 32 32" fill="none" xmlns="http://www.w3.org/2000/svg">
<path d="M26.6667 0H5.33333C3.919 0.000508877 2.56274 0.562567 1.56266 1.56264C0.562576 2.5627 0.000508885 3.91894 0 5.33325V20.2664C0.000508885 21.6807 0.562576 23.0369 1.56266 24.037C2.56274 25.037 3.919 25.5991 5.33333 25.5996H7.616L7.53067 25.7063C7.02243 26.4725 6.78981 27.3888 6.87101 28.3046C6.9522 29.2205 7.34238 30.0816 7.9775 30.7464C8.61261 31.4113 9.45491 31.8405 10.3661 31.9635C11.2773 32.0866 12.2033 31.8961 12.992 31.4235L22.6987 25.5996H26.6667C28.081 25.5991 29.4373 25.037 30.4373 24.037C31.4374 23.0369 31.9995 21.6807 32 20.2664V5.33325C31.9995 3.91894 31.4374 2.5627 30.4373 1.56264C29.4373 0.562567 28.081 0.000508877 26.6667 0ZM22.4 17.0664H9.6C9.3171 17.0664 9.04579 16.954 8.84575 16.754C8.64571 16.554 8.53333 16.2827 8.53333 15.9998C8.53333 15.7169 8.64571 15.4456 8.84575 15.2455C9.04579 15.0455 9.3171 14.9331 9.6 14.9331H22.4C22.6829 14.9331 22.9542 15.0455 23.1542 15.2455C23.3543 15.4456 23.4667 15.7169 23.4667 15.9998C23.4667 16.2827 23.3543 16.554 23.1542 16.754C22.9542 16.954 22.6829 17.0664 22.4 17.0664ZM22.4 10.6665H9.6C9.3171 10.6665 9.04579 10.5541 8.84575 10.3541C8.64571 10.1541 8.53333 9.88275 8.53333 9.59986C8.53333 9.31696 8.64571 9.04566 8.84575 8.84562C9.04579 8.64558 9.3171 8.53321 9.6 8.53321H22.4C22.6829 8.53321 22.9542 8.64558 23.1542 8.84562C23.3543 9.04566 23.4667 9.31696 23.4667 9.59986C23.4667 9.88275 23.3543 10.1541 23.1542 10.3541C22.9542 10.5541 22.6829 10.6665 22.4 10.6665Z" fill="#918464"/>
</svg>
