<svg width="54" height="50" viewBox="0 0 54 50" fill="none" xmlns="http://www.w3.org/2000/svg">
<g filter="url(#filter0_d_336_115)">
<path d="M22 39.5001V27.0001H32V39.5001C32 40.8751 33.125 42.0001 34.5 42.0001H42C43.375 42.0001 44.5 40.8751 44.5 39.5001V22H48.75C49.9 22 50.45 20.5751 49.575 19.8251L28.675 1.00005C27.725 0.150049 26.275 0.150049 25.325 1.00005L4.425 19.8251C3.575 20.5751 4.1 22 5.25 22H9.5V39.5001C9.5 40.8751 10.625 42.0001 12 42.0001H19.5C20.875 42.0001 22 40.8751 22 39.5001Z" fill="#0B83FD"/>
</g>
<defs>
<filter id="filter0_d_336_115" x="0.00537109" y="0.362549" width="54.0004" height="49.6375" filterUnits="userSpaceOnUse" color-interpolation-filters="sRGB">
<feFlood flood-opacity="0" result="BackgroundImageFix"/>
<feColorMatrix in="SourceAlpha" type="matrix" values="0 0 0 0 0 0 0 0 0 0 0 0 0 0 0 0 0 0 127 0" result="hardAlpha"/>
<feOffset dy="4"/>
<feGaussianBlur stdDeviation="2"/>
<feComposite in2="hardAlpha" operator="out"/>
<feColorMatrix type="matrix" values="0 0 0 0 0 0 0 0 0 0 0 0 0 0 0 0 0 0 0.25 0"/>
<feBlend mode="normal" in2="BackgroundImageFix" result="effect1_dropShadow_336_115"/>
<feBlend mode="normal" in="SourceGraphic" in2="effect1_dropShadow_336_115" result="shape"/>
</filter>
</defs>
</svg>
