<svg width="31" height="22" viewBox="0 0 31 22" fill="none" xmlns="http://www.w3.org/2000/svg">
<path d="M0.241333 19.6207C0.241333 20.5729 1.01326 21.3448 1.96547 21.3448H29.0344C29.9867 21.3448 30.7586 20.5729 30.7586 19.6207V19.6207C30.7586 18.6685 29.9867 17.8965 29.0344 17.8965H1.96547C1.01325 17.8965 0.241333 18.6685 0.241333 19.6207V19.6207ZM0.241333 11C0.241333 11.9522 1.01326 12.7241 1.96547 12.7241H29.0344C29.9867 12.7241 30.7586 11.9522 30.7586 11V11C30.7586 10.0478 29.9867 9.27584 29.0344 9.27584H1.96547C1.01325 9.27584 0.241333 10.0478 0.241333 11V11ZM1.96547 0.655151C1.01325 0.655151 0.241333 1.42707 0.241333 2.37929V2.37929C0.241333 3.3315 1.01326 4.10343 1.96547 4.10343H29.0344C29.9867 4.10343 30.7586 3.3315 30.7586 2.37929V2.37929C30.7586 1.42707 29.9867 0.655151 29.0344 0.655151H1.96547Z" fill="white"/>
</svg>
